<mxfile host="Electron" modified="2024-06-05T23:39:40.873Z" agent="Mozilla/5.0 (Windows NT 10.0; Win64; x64) AppleWebKit/537.36 (KHTML, like Gecko) draw.io/24.4.8 Chrome/124.0.6367.207 Electron/30.0.6 Safari/537.36" etag="radi3cNvW_lRP5IAMi9m" version="24.4.8" type="device">
  <diagram id="prtHgNgQTEPvFCAcTncT" name="Page-1">
    <mxGraphModel dx="1050" dy="621" grid="1" gridSize="10" guides="1" tooltips="1" connect="1" arrows="1" fold="1" page="1" pageScale="1" pageWidth="827" pageHeight="1169" math="0" shadow="0">
      <root>
        <mxCell id="0" />
        <mxCell id="1" parent="0" />
        <mxCell id="dNxyNK7c78bLwvsdeMH5-19" value="BPMN de negócio" style="swimlane;html=1;childLayout=stackLayout;resizeParent=1;resizeParentMax=0;horizontal=0;startSize=20;horizontalStack=0;" parent="1" vertex="1">
          <mxGeometry y="40" width="820" height="1110" as="geometry" />
        </mxCell>
        <mxCell id="dNxyNK7c78bLwvsdeMH5-20" value="Companhia aéria" style="swimlane;html=1;startSize=20;horizontal=0;" parent="dNxyNK7c78bLwvsdeMH5-19" vertex="1">
          <mxGeometry x="20" width="800" height="360" as="geometry" />
        </mxCell>
        <mxCell id="Rc6ew9udWL_23QLhYA7q-98" style="edgeStyle=orthogonalEdgeStyle;rounded=0;orthogonalLoop=1;jettySize=auto;html=1;entryX=0.5;entryY=0;entryDx=0;entryDy=0;" parent="dNxyNK7c78bLwvsdeMH5-20" source="dNxyNK7c78bLwvsdeMH5-23" target="Rc6ew9udWL_23QLhYA7q-8" edge="1">
          <mxGeometry relative="1" as="geometry">
            <Array as="points">
              <mxPoint x="130" y="50" />
            </Array>
          </mxGeometry>
        </mxCell>
        <mxCell id="dNxyNK7c78bLwvsdeMH5-23" value="" style="ellipse;whiteSpace=wrap;html=1;" parent="dNxyNK7c78bLwvsdeMH5-20" vertex="1">
          <mxGeometry x="60" y="40" width="20" height="20" as="geometry" />
        </mxCell>
        <mxCell id="Rc6ew9udWL_23QLhYA7q-7" value="Acessa Site Institucional" style="text;html=1;align=center;verticalAlign=middle;whiteSpace=wrap;rounded=0;" parent="dNxyNK7c78bLwvsdeMH5-20" vertex="1">
          <mxGeometry x="40" y="10" width="60" height="30" as="geometry" />
        </mxCell>
        <mxCell id="Rc6ew9udWL_23QLhYA7q-8" value="Solicitar contato" style="rounded=0;whiteSpace=wrap;html=1;" parent="dNxyNK7c78bLwvsdeMH5-20" vertex="1">
          <mxGeometry x="70" y="80" width="120" height="30" as="geometry" />
        </mxCell>
        <mxCell id="Rc6ew9udWL_23QLhYA7q-81" value="Receber resposta&amp;nbsp;" style="rounded=0;whiteSpace=wrap;html=1;" parent="dNxyNK7c78bLwvsdeMH5-20" vertex="1">
          <mxGeometry x="440" y="310" width="120" height="30" as="geometry" />
        </mxCell>
        <mxCell id="Rc6ew9udWL_23QLhYA7q-53" value="" style="ellipse;whiteSpace=wrap;html=1;aspect=fixed;" parent="dNxyNK7c78bLwvsdeMH5-20" vertex="1">
          <mxGeometry x="490" y="40" width="20" height="20" as="geometry" />
        </mxCell>
        <mxCell id="Rc6ew9udWL_23QLhYA7q-102" value="Enviar nova dúvida" style="rounded=0;whiteSpace=wrap;html=1;" parent="dNxyNK7c78bLwvsdeMH5-20" vertex="1">
          <mxGeometry x="225" y="245" width="120" height="30" as="geometry" />
        </mxCell>
        <mxCell id="Rc6ew9udWL_23QLhYA7q-136" style="edgeStyle=orthogonalEdgeStyle;rounded=0;orthogonalLoop=1;jettySize=auto;html=1;entryX=0.5;entryY=1;entryDx=0;entryDy=0;" parent="dNxyNK7c78bLwvsdeMH5-20" source="Rc6ew9udWL_23QLhYA7q-100" target="Rc6ew9udWL_23QLhYA7q-53" edge="1">
          <mxGeometry relative="1" as="geometry" />
        </mxCell>
        <mxCell id="Rc6ew9udWL_23QLhYA7q-100" value="" style="points=[[0.25,0.25,0],[0.5,0,0],[0.75,0.25,0],[1,0.5,0],[0.75,0.75,0],[0.5,1,0],[0.25,0.75,0],[0,0.5,0]];shape=mxgraph.bpmn.gateway2;html=1;verticalLabelPosition=bottom;labelBackgroundColor=#ffffff;verticalAlign=top;align=center;perimeter=rhombusPerimeter;outlineConnect=0;outline=none;symbol=none;gwType=exclusive;" parent="dNxyNK7c78bLwvsdeMH5-20" vertex="1">
          <mxGeometry x="475" y="235" width="50" height="50" as="geometry" />
        </mxCell>
        <mxCell id="Rc6ew9udWL_23QLhYA7q-99" style="edgeStyle=orthogonalEdgeStyle;rounded=0;orthogonalLoop=1;jettySize=auto;html=1;" parent="dNxyNK7c78bLwvsdeMH5-20" source="Rc6ew9udWL_23QLhYA7q-81" target="Rc6ew9udWL_23QLhYA7q-100" edge="1">
          <mxGeometry relative="1" as="geometry">
            <mxPoint x="535" y="170" as="targetPoint" />
          </mxGeometry>
        </mxCell>
        <mxCell id="Rc6ew9udWL_23QLhYA7q-101" style="edgeStyle=orthogonalEdgeStyle;rounded=0;orthogonalLoop=1;jettySize=auto;html=1;" parent="dNxyNK7c78bLwvsdeMH5-20" source="Rc6ew9udWL_23QLhYA7q-100" target="Rc6ew9udWL_23QLhYA7q-102" edge="1">
          <mxGeometry relative="1" as="geometry">
            <mxPoint x="330" y="170" as="targetPoint" />
          </mxGeometry>
        </mxCell>
        <mxCell id="Rc6ew9udWL_23QLhYA7q-117" value="Enviar informações solicitadas" style="rounded=0;whiteSpace=wrap;html=1;" parent="dNxyNK7c78bLwvsdeMH5-20" vertex="1">
          <mxGeometry x="590" y="290" width="120" height="50" as="geometry" />
        </mxCell>
        <mxCell id="Rc6ew9udWL_23QLhYA7q-126" value="Validar orçamento" style="rounded=0;whiteSpace=wrap;html=1;" parent="dNxyNK7c78bLwvsdeMH5-20" vertex="1">
          <mxGeometry x="595" y="210" width="110" height="30" as="geometry" />
        </mxCell>
        <mxCell id="Rc6ew9udWL_23QLhYA7q-130" style="edgeStyle=orthogonalEdgeStyle;rounded=0;orthogonalLoop=1;jettySize=auto;html=1;" parent="dNxyNK7c78bLwvsdeMH5-20" source="Rc6ew9udWL_23QLhYA7q-129" edge="1">
          <mxGeometry relative="1" as="geometry">
            <mxPoint x="500" y="60" as="targetPoint" />
            <Array as="points">
              <mxPoint x="650" y="70" />
              <mxPoint x="500" y="70" />
            </Array>
          </mxGeometry>
        </mxCell>
        <mxCell id="Rc6ew9udWL_23QLhYA7q-129" value="" style="points=[[0.25,0.25,0],[0.5,0,0],[0.75,0.25,0],[1,0.5,0],[0.75,0.75,0],[0.5,1,0],[0.25,0.75,0],[0,0.5,0]];shape=mxgraph.bpmn.gateway2;html=1;verticalLabelPosition=bottom;labelBackgroundColor=#ffffff;verticalAlign=top;align=center;perimeter=rhombusPerimeter;outlineConnect=0;outline=none;symbol=none;gwType=exclusive;" parent="dNxyNK7c78bLwvsdeMH5-20" vertex="1">
          <mxGeometry x="625" y="130" width="50" height="50" as="geometry" />
        </mxCell>
        <mxCell id="Rc6ew9udWL_23QLhYA7q-128" style="edgeStyle=orthogonalEdgeStyle;rounded=0;orthogonalLoop=1;jettySize=auto;html=1;" parent="dNxyNK7c78bLwvsdeMH5-20" source="Rc6ew9udWL_23QLhYA7q-126" target="Rc6ew9udWL_23QLhYA7q-129" edge="1">
          <mxGeometry relative="1" as="geometry">
            <mxPoint x="650" y="140" as="targetPoint" />
          </mxGeometry>
        </mxCell>
        <mxCell id="Rc6ew9udWL_23QLhYA7q-107" value="nova dúvida" style="text;html=1;align=center;verticalAlign=middle;whiteSpace=wrap;rounded=0;" parent="dNxyNK7c78bLwvsdeMH5-20" vertex="1">
          <mxGeometry x="370" y="235" width="94" height="30" as="geometry" />
        </mxCell>
        <mxCell id="Rc6ew9udWL_23QLhYA7q-135" value="pedir orçamento" style="text;html=1;align=center;verticalAlign=middle;whiteSpace=wrap;rounded=0;" parent="dNxyNK7c78bLwvsdeMH5-20" vertex="1">
          <mxGeometry x="520" y="230" width="60" height="30" as="geometry" />
        </mxCell>
        <mxCell id="Rc6ew9udWL_23QLhYA7q-137" value="sem interesse" style="text;html=1;align=center;verticalAlign=middle;whiteSpace=wrap;rounded=0;" parent="dNxyNK7c78bLwvsdeMH5-20" vertex="1">
          <mxGeometry x="440" y="180" width="60" height="30" as="geometry" />
        </mxCell>
        <mxCell id="Rc6ew9udWL_23QLhYA7q-140" value="sem interesse" style="text;html=1;align=center;verticalAlign=middle;whiteSpace=wrap;rounded=0;" parent="dNxyNK7c78bLwvsdeMH5-20" vertex="1">
          <mxGeometry x="590" y="70" width="60" height="30" as="geometry" />
        </mxCell>
        <mxCell id="Rc6ew9udWL_23QLhYA7q-141" value="pedir novo orçamento" style="text;html=1;align=center;verticalAlign=middle;whiteSpace=wrap;rounded=0;" parent="dNxyNK7c78bLwvsdeMH5-20" vertex="1">
          <mxGeometry x="565" y="120" width="60" height="30" as="geometry" />
        </mxCell>
        <mxCell id="Rc6ew9udWL_23QLhYA7q-142" value="fechar negócio" style="text;html=1;align=center;verticalAlign=middle;whiteSpace=wrap;rounded=0;" parent="dNxyNK7c78bLwvsdeMH5-20" vertex="1">
          <mxGeometry x="675" y="120" width="60" height="30" as="geometry" />
        </mxCell>
        <mxCell id="Rc6ew9udWL_23QLhYA7q-143" value="Terminar atendimento" style="text;html=1;align=center;verticalAlign=middle;whiteSpace=wrap;rounded=0;" parent="dNxyNK7c78bLwvsdeMH5-20" vertex="1">
          <mxGeometry x="470" y="10" width="60" height="30" as="geometry" />
        </mxCell>
        <mxCell id="Rc6ew9udWL_23QLhYA7q-161" style="edgeStyle=orthogonalEdgeStyle;rounded=0;orthogonalLoop=1;jettySize=auto;html=1;entryX=1;entryY=0.5;entryDx=0;entryDy=0;" parent="dNxyNK7c78bLwvsdeMH5-20" source="Rc6ew9udWL_23QLhYA7q-159" target="Rc6ew9udWL_23QLhYA7q-53" edge="1">
          <mxGeometry relative="1" as="geometry" />
        </mxCell>
        <mxCell id="Rc6ew9udWL_23QLhYA7q-159" value="Receber 1° perfil ADM" style="rounded=0;whiteSpace=wrap;html=1;" parent="dNxyNK7c78bLwvsdeMH5-20" vertex="1">
          <mxGeometry x="675" y="27.5" width="120" height="45" as="geometry" />
        </mxCell>
        <mxCell id="dNxyNK7c78bLwvsdeMH5-21" value="Site Institucional Air Totem" style="swimlane;html=1;startSize=20;horizontal=0;" parent="dNxyNK7c78bLwvsdeMH5-19" vertex="1">
          <mxGeometry x="20" y="360" width="800" height="290" as="geometry" />
        </mxCell>
        <mxCell id="Rc6ew9udWL_23QLhYA7q-10" value="Receber informações do usuário" style="rounded=0;whiteSpace=wrap;html=1;" parent="dNxyNK7c78bLwvsdeMH5-21" vertex="1">
          <mxGeometry x="60" y="40" width="140" height="50" as="geometry" />
        </mxCell>
        <mxCell id="Rc6ew9udWL_23QLhYA7q-12" value="Enviar solicitação de contato" style="rounded=0;whiteSpace=wrap;html=1;" parent="dNxyNK7c78bLwvsdeMH5-21" vertex="1">
          <mxGeometry x="60" y="140" width="140" height="45" as="geometry" />
        </mxCell>
        <mxCell id="Rc6ew9udWL_23QLhYA7q-11" style="edgeStyle=orthogonalEdgeStyle;rounded=0;orthogonalLoop=1;jettySize=auto;html=1;" parent="dNxyNK7c78bLwvsdeMH5-21" source="Rc6ew9udWL_23QLhYA7q-10" target="Rc6ew9udWL_23QLhYA7q-12" edge="1">
          <mxGeometry relative="1" as="geometry">
            <mxPoint x="140" y="130" as="targetPoint" />
          </mxGeometry>
        </mxCell>
        <mxCell id="Rc6ew9udWL_23QLhYA7q-13" style="edgeStyle=orthogonalEdgeStyle;rounded=0;orthogonalLoop=1;jettySize=auto;html=1;" parent="dNxyNK7c78bLwvsdeMH5-19" source="Rc6ew9udWL_23QLhYA7q-12" target="Rc6ew9udWL_23QLhYA7q-14" edge="1">
          <mxGeometry relative="1" as="geometry">
            <mxPoint x="130" y="570" as="targetPoint" />
          </mxGeometry>
        </mxCell>
        <mxCell id="Rc6ew9udWL_23QLhYA7q-87" style="edgeStyle=orthogonalEdgeStyle;rounded=0;orthogonalLoop=1;jettySize=auto;html=1;entryX=0.5;entryY=0;entryDx=0;entryDy=0;" parent="dNxyNK7c78bLwvsdeMH5-19" source="Rc6ew9udWL_23QLhYA7q-8" target="Rc6ew9udWL_23QLhYA7q-10" edge="1">
          <mxGeometry relative="1" as="geometry" />
        </mxCell>
        <mxCell id="Rc6ew9udWL_23QLhYA7q-97" style="edgeStyle=orthogonalEdgeStyle;rounded=0;orthogonalLoop=1;jettySize=auto;html=1;entryX=0.5;entryY=1;entryDx=0;entryDy=0;" parent="dNxyNK7c78bLwvsdeMH5-19" source="Rc6ew9udWL_23QLhYA7q-32" target="Rc6ew9udWL_23QLhYA7q-81" edge="1">
          <mxGeometry relative="1" as="geometry">
            <mxPoint x="500" y="310" as="targetPoint" />
          </mxGeometry>
        </mxCell>
        <mxCell id="Rc6ew9udWL_23QLhYA7q-103" style="edgeStyle=orthogonalEdgeStyle;rounded=0;orthogonalLoop=1;jettySize=auto;html=1;entryX=0.5;entryY=0;entryDx=0;entryDy=0;" parent="dNxyNK7c78bLwvsdeMH5-19" source="Rc6ew9udWL_23QLhYA7q-102" target="Rc6ew9udWL_23QLhYA7q-25" edge="1">
          <mxGeometry relative="1" as="geometry" />
        </mxCell>
        <mxCell id="Rc6ew9udWL_23QLhYA7q-116" style="edgeStyle=orthogonalEdgeStyle;rounded=0;orthogonalLoop=1;jettySize=auto;html=1;" parent="dNxyNK7c78bLwvsdeMH5-19" source="Rc6ew9udWL_23QLhYA7q-115" target="Rc6ew9udWL_23QLhYA7q-117" edge="1">
          <mxGeometry relative="1" as="geometry">
            <mxPoint x="670" y="280" as="targetPoint" />
            <Array as="points">
              <mxPoint x="670" y="845" />
            </Array>
          </mxGeometry>
        </mxCell>
        <mxCell id="Rc6ew9udWL_23QLhYA7q-118" style="edgeStyle=orthogonalEdgeStyle;rounded=0;orthogonalLoop=1;jettySize=auto;html=1;exitX=0.25;exitY=1;exitDx=0;exitDy=0;entryX=0.5;entryY=0;entryDx=0;entryDy=0;" parent="dNxyNK7c78bLwvsdeMH5-19" source="Rc6ew9udWL_23QLhYA7q-117" target="Rc6ew9udWL_23QLhYA7q-106" edge="1">
          <mxGeometry relative="1" as="geometry">
            <mxPoint x="640" y="800" as="targetPoint" />
            <Array as="points">
              <mxPoint x="640" y="800" />
              <mxPoint x="305" y="800" />
            </Array>
          </mxGeometry>
        </mxCell>
        <mxCell id="dNxyNK7c78bLwvsdeMH5-22" value="Equipe AirTotem" style="swimlane;html=1;startSize=20;horizontal=0;" parent="dNxyNK7c78bLwvsdeMH5-19" vertex="1">
          <mxGeometry x="20" y="650" width="800" height="460" as="geometry" />
        </mxCell>
        <mxCell id="Rc6ew9udWL_23QLhYA7q-14" value="Validar tipo de contato" style="rounded=0;whiteSpace=wrap;html=1;" parent="dNxyNK7c78bLwvsdeMH5-22" vertex="1">
          <mxGeometry x="80" y="15" width="100" height="40" as="geometry" />
        </mxCell>
        <mxCell id="Rc6ew9udWL_23QLhYA7q-95" style="edgeStyle=orthogonalEdgeStyle;rounded=0;orthogonalLoop=1;jettySize=auto;html=1;entryX=0;entryY=0.5;entryDx=0;entryDy=0;exitX=1;exitY=0.5;exitDx=0;exitDy=0;exitPerimeter=0;" parent="dNxyNK7c78bLwvsdeMH5-22" source="Rc6ew9udWL_23QLhYA7q-16" target="Rc6ew9udWL_23QLhYA7q-25" edge="1">
          <mxGeometry relative="1" as="geometry">
            <mxPoint x="180" y="105" as="sourcePoint" />
          </mxGeometry>
        </mxCell>
        <mxCell id="Rc6ew9udWL_23QLhYA7q-16" value="" style="points=[[0.25,0.25,0],[0.5,0,0],[0.75,0.25,0],[1,0.5,0],[0.75,0.75,0],[0.5,1,0],[0.25,0.75,0],[0,0.5,0]];shape=mxgraph.bpmn.gateway2;html=1;verticalLabelPosition=bottom;labelBackgroundColor=#ffffff;verticalAlign=top;align=center;perimeter=rhombusPerimeter;outlineConnect=0;outline=none;symbol=none;gwType=exclusive;" parent="dNxyNK7c78bLwvsdeMH5-22" vertex="1">
          <mxGeometry x="105" y="80" width="50" height="50" as="geometry" />
        </mxCell>
        <mxCell id="Rc6ew9udWL_23QLhYA7q-15" style="edgeStyle=orthogonalEdgeStyle;rounded=0;orthogonalLoop=1;jettySize=auto;html=1;" parent="dNxyNK7c78bLwvsdeMH5-22" source="Rc6ew9udWL_23QLhYA7q-14" target="Rc6ew9udWL_23QLhYA7q-16" edge="1">
          <mxGeometry relative="1" as="geometry">
            <mxPoint x="140" y="140" as="targetPoint" />
          </mxGeometry>
        </mxCell>
        <mxCell id="Rc6ew9udWL_23QLhYA7q-25" value="Consultar Base de conhecimento" style="rounded=0;whiteSpace=wrap;html=1;" parent="dNxyNK7c78bLwvsdeMH5-22" vertex="1">
          <mxGeometry x="225" y="82.5" width="120" height="45" as="geometry" />
        </mxCell>
        <mxCell id="Rc6ew9udWL_23QLhYA7q-26" value="Dúvida" style="text;html=1;align=center;verticalAlign=middle;whiteSpace=wrap;rounded=0;" parent="dNxyNK7c78bLwvsdeMH5-22" vertex="1">
          <mxGeometry x="155" y="80" width="60" height="30" as="geometry" />
        </mxCell>
        <mxCell id="Rc6ew9udWL_23QLhYA7q-28" value="Cotação" style="text;html=1;align=center;verticalAlign=middle;whiteSpace=wrap;rounded=0;" parent="dNxyNK7c78bLwvsdeMH5-22" vertex="1">
          <mxGeometry x="155" y="165" width="60" height="30" as="geometry" />
        </mxCell>
        <mxCell id="Rc6ew9udWL_23QLhYA7q-32" value="Responder Dúvida" style="rounded=0;whiteSpace=wrap;html=1;" parent="dNxyNK7c78bLwvsdeMH5-22" vertex="1">
          <mxGeometry x="440" y="87.5" width="120" height="35" as="geometry" />
        </mxCell>
        <mxCell id="Rc6ew9udWL_23QLhYA7q-18" style="edgeStyle=orthogonalEdgeStyle;rounded=0;orthogonalLoop=1;jettySize=auto;html=1;" parent="dNxyNK7c78bLwvsdeMH5-22" source="Rc6ew9udWL_23QLhYA7q-16" target="Rc6ew9udWL_23QLhYA7q-34" edge="1">
          <mxGeometry relative="1" as="geometry">
            <mxPoint x="260" y="165" as="targetPoint" />
          </mxGeometry>
        </mxCell>
        <mxCell id="Rc6ew9udWL_23QLhYA7q-30" value="" style="shape=cylinder3;whiteSpace=wrap;html=1;boundedLbl=1;backgroundOutline=1;size=15;" parent="dNxyNK7c78bLwvsdeMH5-22" vertex="1">
          <mxGeometry x="373" y="77.5" width="41.25" height="55" as="geometry" />
        </mxCell>
        <mxCell id="Rc6ew9udWL_23QLhYA7q-29" style="edgeStyle=orthogonalEdgeStyle;rounded=0;orthogonalLoop=1;jettySize=auto;html=1;" parent="dNxyNK7c78bLwvsdeMH5-22" source="Rc6ew9udWL_23QLhYA7q-25" target="Rc6ew9udWL_23QLhYA7q-30" edge="1">
          <mxGeometry relative="1" as="geometry">
            <mxPoint x="425" y="65" as="targetPoint" />
          </mxGeometry>
        </mxCell>
        <mxCell id="Rc6ew9udWL_23QLhYA7q-31" style="edgeStyle=orthogonalEdgeStyle;rounded=0;orthogonalLoop=1;jettySize=auto;html=1;" parent="dNxyNK7c78bLwvsdeMH5-22" source="Rc6ew9udWL_23QLhYA7q-30" target="Rc6ew9udWL_23QLhYA7q-32" edge="1">
          <mxGeometry relative="1" as="geometry">
            <mxPoint x="535" y="65" as="targetPoint" />
          </mxGeometry>
        </mxCell>
        <mxCell id="Rc6ew9udWL_23QLhYA7q-89" value="" style="edgeStyle=orthogonalEdgeStyle;rounded=0;orthogonalLoop=1;jettySize=auto;html=1;exitX=0.5;exitY=1;exitDx=0;exitDy=0;exitPerimeter=0;" parent="dNxyNK7c78bLwvsdeMH5-22" source="Rc6ew9udWL_23QLhYA7q-16" target="Rc6ew9udWL_23QLhYA7q-34" edge="1">
          <mxGeometry relative="1" as="geometry">
            <mxPoint x="290" y="1040" as="targetPoint" />
            <mxPoint x="140" y="820" as="sourcePoint" />
          </mxGeometry>
        </mxCell>
        <mxCell id="Rc6ew9udWL_23QLhYA7q-34" value="" style="points=[[0.25,0.25,0],[0.5,0,0],[0.75,0.25,0],[1,0.5,0],[0.75,0.75,0],[0.5,1,0],[0.25,0.75,0],[0,0.5,0]];shape=mxgraph.bpmn.gateway2;html=1;verticalLabelPosition=bottom;labelBackgroundColor=#ffffff;verticalAlign=top;align=center;perimeter=rhombusPerimeter;outlineConnect=0;outline=none;symbol=none;gwType=exclusive;" parent="dNxyNK7c78bLwvsdeMH5-22" vertex="1">
          <mxGeometry x="105" y="170" width="50" height="50" as="geometry" />
        </mxCell>
        <mxCell id="Rc6ew9udWL_23QLhYA7q-96" value="BC" style="text;html=1;align=center;verticalAlign=middle;whiteSpace=wrap;rounded=0;" parent="dNxyNK7c78bLwvsdeMH5-22" vertex="1">
          <mxGeometry x="364" y="102.5" width="60" height="30" as="geometry" />
        </mxCell>
        <mxCell id="Rc6ew9udWL_23QLhYA7q-106" value="Validar informações recebidas" style="rounded=0;whiteSpace=wrap;html=1;" parent="dNxyNK7c78bLwvsdeMH5-22" vertex="1">
          <mxGeometry x="225" y="172.5" width="120" height="45" as="geometry" />
        </mxCell>
        <mxCell id="Rc6ew9udWL_23QLhYA7q-105" style="edgeStyle=orthogonalEdgeStyle;rounded=0;orthogonalLoop=1;jettySize=auto;html=1;" parent="dNxyNK7c78bLwvsdeMH5-22" source="Rc6ew9udWL_23QLhYA7q-34" target="Rc6ew9udWL_23QLhYA7q-106" edge="1">
          <mxGeometry relative="1" as="geometry">
            <mxPoint x="220" y="195" as="targetPoint" />
          </mxGeometry>
        </mxCell>
        <mxCell id="Rc6ew9udWL_23QLhYA7q-109" value="" style="points=[[0.25,0.25,0],[0.5,0,0],[0.75,0.25,0],[1,0.5,0],[0.75,0.75,0],[0.5,1,0],[0.25,0.75,0],[0,0.5,0]];shape=mxgraph.bpmn.gateway2;html=1;verticalLabelPosition=bottom;labelBackgroundColor=#ffffff;verticalAlign=top;align=center;perimeter=rhombusPerimeter;outlineConnect=0;outline=none;symbol=none;gwType=exclusive;" parent="dNxyNK7c78bLwvsdeMH5-22" vertex="1">
          <mxGeometry x="380" y="170" width="50" height="50" as="geometry" />
        </mxCell>
        <mxCell id="Rc6ew9udWL_23QLhYA7q-108" style="edgeStyle=orthogonalEdgeStyle;rounded=0;orthogonalLoop=1;jettySize=auto;html=1;" parent="dNxyNK7c78bLwvsdeMH5-22" source="Rc6ew9udWL_23QLhYA7q-106" target="Rc6ew9udWL_23QLhYA7q-109" edge="1">
          <mxGeometry relative="1" as="geometry">
            <mxPoint x="390" y="195" as="targetPoint" />
          </mxGeometry>
        </mxCell>
        <mxCell id="Rc6ew9udWL_23QLhYA7q-110" style="edgeStyle=orthogonalEdgeStyle;rounded=0;orthogonalLoop=1;jettySize=auto;html=1;entryX=0;entryY=0.5;entryDx=0;entryDy=0;" parent="dNxyNK7c78bLwvsdeMH5-22" source="Rc6ew9udWL_23QLhYA7q-109" target="Rc6ew9udWL_23QLhYA7q-115" edge="1">
          <mxGeometry relative="1" as="geometry">
            <mxPoint x="470" y="195" as="targetPoint" />
          </mxGeometry>
        </mxCell>
        <mxCell id="Rc6ew9udWL_23QLhYA7q-113" value="Fazer cotação" style="rounded=0;whiteSpace=wrap;html=1;" parent="dNxyNK7c78bLwvsdeMH5-22" vertex="1">
          <mxGeometry x="357.5" y="260" width="95" height="25" as="geometry" />
        </mxCell>
        <mxCell id="Rc6ew9udWL_23QLhYA7q-112" style="edgeStyle=orthogonalEdgeStyle;rounded=0;orthogonalLoop=1;jettySize=auto;html=1;" parent="dNxyNK7c78bLwvsdeMH5-22" source="Rc6ew9udWL_23QLhYA7q-109" target="Rc6ew9udWL_23QLhYA7q-113" edge="1">
          <mxGeometry relative="1" as="geometry">
            <mxPoint x="394" y="260" as="targetPoint" />
          </mxGeometry>
        </mxCell>
        <mxCell id="Rc6ew9udWL_23QLhYA7q-115" value="Solicitar informações necessárias" style="rounded=0;whiteSpace=wrap;html=1;" parent="dNxyNK7c78bLwvsdeMH5-22" vertex="1">
          <mxGeometry x="520" y="172.5" width="120" height="45" as="geometry" />
        </mxCell>
        <mxCell id="Rc6ew9udWL_23QLhYA7q-121" value="Informações insuficientes" style="text;html=1;align=center;verticalAlign=middle;whiteSpace=wrap;rounded=0;" parent="dNxyNK7c78bLwvsdeMH5-22" vertex="1">
          <mxGeometry x="440" y="165" width="60" height="30" as="geometry" />
        </mxCell>
        <mxCell id="Rc6ew9udWL_23QLhYA7q-122" value="Informações suficientes" style="text;html=1;align=center;verticalAlign=middle;whiteSpace=wrap;rounded=0;" parent="dNxyNK7c78bLwvsdeMH5-22" vertex="1">
          <mxGeometry x="414.25" y="220" width="60" height="30" as="geometry" />
        </mxCell>
        <mxCell id="Rc6ew9udWL_23QLhYA7q-124" value="Enviar proposta" style="rounded=0;whiteSpace=wrap;html=1;" parent="dNxyNK7c78bLwvsdeMH5-22" vertex="1">
          <mxGeometry x="500" y="256.25" width="100" height="32.5" as="geometry" />
        </mxCell>
        <mxCell id="Rc6ew9udWL_23QLhYA7q-123" style="edgeStyle=orthogonalEdgeStyle;rounded=0;orthogonalLoop=1;jettySize=auto;html=1;" parent="dNxyNK7c78bLwvsdeMH5-22" source="Rc6ew9udWL_23QLhYA7q-113" target="Rc6ew9udWL_23QLhYA7q-124" edge="1">
          <mxGeometry relative="1" as="geometry">
            <mxPoint x="510" y="272.5" as="targetPoint" />
          </mxGeometry>
        </mxCell>
        <mxCell id="Rc6ew9udWL_23QLhYA7q-144" value="Cadastrar companhia aéria" style="rounded=0;whiteSpace=wrap;html=1;" parent="dNxyNK7c78bLwvsdeMH5-22" vertex="1">
          <mxGeometry x="525" y="310" width="130" height="40" as="geometry" />
        </mxCell>
        <mxCell id="Rc6ew9udWL_23QLhYA7q-146" value="" style="points=[[0.25,0.25,0],[0.5,0,0],[0.75,0.25,0],[1,0.5,0],[0.75,0.75,0],[0.5,1,0],[0.25,0.75,0],[0,0.5,0]];shape=mxgraph.bpmn.gateway2;html=1;verticalLabelPosition=bottom;labelBackgroundColor=#ffffff;verticalAlign=top;align=center;perimeter=rhombusPerimeter;outlineConnect=0;outline=none;symbol=none;gwType=parallel;" parent="dNxyNK7c78bLwvsdeMH5-22" vertex="1">
          <mxGeometry x="445" y="305" width="50" height="50" as="geometry" />
        </mxCell>
        <mxCell id="Rc6ew9udWL_23QLhYA7q-145" style="edgeStyle=orthogonalEdgeStyle;rounded=0;orthogonalLoop=1;jettySize=auto;html=1;" parent="dNxyNK7c78bLwvsdeMH5-22" source="Rc6ew9udWL_23QLhYA7q-144" target="Rc6ew9udWL_23QLhYA7q-146" edge="1">
          <mxGeometry relative="1" as="geometry">
            <mxPoint x="485" y="330" as="targetPoint" />
          </mxGeometry>
        </mxCell>
        <mxCell id="Rc6ew9udWL_23QLhYA7q-149" value="Disponibilizar quantidade de totem que podem ser cadastrados" style="rounded=0;whiteSpace=wrap;html=1;" parent="dNxyNK7c78bLwvsdeMH5-22" vertex="1">
          <mxGeometry x="284" y="295" width="120" height="70" as="geometry" />
        </mxCell>
        <mxCell id="Rc6ew9udWL_23QLhYA7q-147" style="edgeStyle=orthogonalEdgeStyle;rounded=0;orthogonalLoop=1;jettySize=auto;html=1;" parent="dNxyNK7c78bLwvsdeMH5-22" source="Rc6ew9udWL_23QLhYA7q-146" target="Rc6ew9udWL_23QLhYA7q-149" edge="1">
          <mxGeometry relative="1" as="geometry">
            <mxPoint x="425" y="330" as="targetPoint" />
          </mxGeometry>
        </mxCell>
        <mxCell id="Rc6ew9udWL_23QLhYA7q-151" value="Criar 1°&amp;nbsp;perfil ADM&amp;nbsp;" style="rounded=0;whiteSpace=wrap;html=1;" parent="dNxyNK7c78bLwvsdeMH5-22" vertex="1">
          <mxGeometry x="410" y="380" width="120" height="30" as="geometry" />
        </mxCell>
        <mxCell id="Rc6ew9udWL_23QLhYA7q-150" style="edgeStyle=orthogonalEdgeStyle;rounded=0;orthogonalLoop=1;jettySize=auto;html=1;" parent="dNxyNK7c78bLwvsdeMH5-22" source="Rc6ew9udWL_23QLhYA7q-146" target="Rc6ew9udWL_23QLhYA7q-151" edge="1">
          <mxGeometry relative="1" as="geometry">
            <mxPoint x="470" y="400" as="targetPoint" />
          </mxGeometry>
        </mxCell>
        <mxCell id="Rc6ew9udWL_23QLhYA7q-125" style="edgeStyle=orthogonalEdgeStyle;rounded=0;orthogonalLoop=1;jettySize=auto;html=1;entryX=1;entryY=0.5;entryDx=0;entryDy=0;" parent="dNxyNK7c78bLwvsdeMH5-19" source="Rc6ew9udWL_23QLhYA7q-124" target="Rc6ew9udWL_23QLhYA7q-126" edge="1">
          <mxGeometry relative="1" as="geometry">
            <mxPoint x="750" y="140" as="targetPoint" />
            <Array as="points">
              <mxPoint x="745" y="923" />
              <mxPoint x="745" y="225" />
            </Array>
          </mxGeometry>
        </mxCell>
        <mxCell id="Rc6ew9udWL_23QLhYA7q-131" style="edgeStyle=orthogonalEdgeStyle;rounded=0;orthogonalLoop=1;jettySize=auto;html=1;entryX=0.5;entryY=0;entryDx=0;entryDy=0;" parent="dNxyNK7c78bLwvsdeMH5-19" source="Rc6ew9udWL_23QLhYA7q-129" target="Rc6ew9udWL_23QLhYA7q-106" edge="1">
          <mxGeometry relative="1" as="geometry">
            <mxPoint x="590" y="390" as="targetPoint" />
            <Array as="points">
              <mxPoint x="600" y="155" />
              <mxPoint x="600" y="800" />
              <mxPoint x="305" y="800" />
            </Array>
          </mxGeometry>
        </mxCell>
        <mxCell id="Rc6ew9udWL_23QLhYA7q-134" style="edgeStyle=orthogonalEdgeStyle;rounded=0;orthogonalLoop=1;jettySize=auto;html=1;entryX=0.5;entryY=0;entryDx=0;entryDy=0;" parent="dNxyNK7c78bLwvsdeMH5-19" source="Rc6ew9udWL_23QLhYA7q-100" target="Rc6ew9udWL_23QLhYA7q-106" edge="1">
          <mxGeometry relative="1" as="geometry">
            <mxPoint x="600.0000000000002" y="260" as="targetPoint" />
            <Array as="points">
              <mxPoint x="600" y="260" />
              <mxPoint x="600" y="800" />
              <mxPoint x="305" y="800" />
            </Array>
          </mxGeometry>
        </mxCell>
        <mxCell id="Rc6ew9udWL_23QLhYA7q-132" style="edgeStyle=orthogonalEdgeStyle;rounded=0;orthogonalLoop=1;jettySize=auto;html=1;" parent="dNxyNK7c78bLwvsdeMH5-19" source="Rc6ew9udWL_23QLhYA7q-129" target="Rc6ew9udWL_23QLhYA7q-144" edge="1">
          <mxGeometry relative="1" as="geometry">
            <mxPoint x="770" y="970" as="targetPoint" />
            <Array as="points">
              <mxPoint x="770" y="155" />
              <mxPoint x="770" y="980" />
            </Array>
          </mxGeometry>
        </mxCell>
        <mxCell id="Rc6ew9udWL_23QLhYA7q-6" value="BPMN - Processos da Solução Air Totem" style="text;html=1;align=center;verticalAlign=middle;whiteSpace=wrap;rounded=0;" parent="1" vertex="1">
          <mxGeometry width="820" height="30" as="geometry" />
        </mxCell>
        <mxCell id="Rc6ew9udWL_23QLhYA7q-157" style="edgeStyle=orthogonalEdgeStyle;rounded=0;orthogonalLoop=1;jettySize=auto;html=1;" parent="1" source="Rc6ew9udWL_23QLhYA7q-155" target="Rc6ew9udWL_23QLhYA7q-159" edge="1">
          <mxGeometry relative="1" as="geometry">
            <mxPoint x="775" y="150" as="targetPoint" />
            <Array as="points">
              <mxPoint x="780" y="1085" />
            </Array>
          </mxGeometry>
        </mxCell>
        <mxCell id="Rc6ew9udWL_23QLhYA7q-155" value="" style="points=[[0.25,0.25,0],[0.5,0,0],[0.75,0.25,0],[1,0.5,0],[0.75,0.75,0],[0.5,1,0],[0.25,0.75,0],[0,0.5,0]];shape=mxgraph.bpmn.gateway2;html=1;verticalLabelPosition=bottom;labelBackgroundColor=#ffffff;verticalAlign=top;align=center;perimeter=rhombusPerimeter;outlineConnect=0;outline=none;symbol=none;gwType=parallel;" parent="1" vertex="1">
          <mxGeometry x="575" y="1060" width="50" height="50" as="geometry" />
        </mxCell>
        <mxCell id="Rc6ew9udWL_23QLhYA7q-154" style="edgeStyle=orthogonalEdgeStyle;rounded=0;orthogonalLoop=1;jettySize=auto;html=1;" parent="1" source="Rc6ew9udWL_23QLhYA7q-151" target="Rc6ew9udWL_23QLhYA7q-155" edge="1">
          <mxGeometry relative="1" as="geometry">
            <mxPoint x="600" y="1085" as="targetPoint" />
          </mxGeometry>
        </mxCell>
        <mxCell id="Rc6ew9udWL_23QLhYA7q-156" style="edgeStyle=orthogonalEdgeStyle;rounded=0;orthogonalLoop=1;jettySize=auto;html=1;entryX=0.5;entryY=1;entryDx=0;entryDy=0;entryPerimeter=0;" parent="1" source="Rc6ew9udWL_23QLhYA7q-149" target="Rc6ew9udWL_23QLhYA7q-155" edge="1">
          <mxGeometry relative="1" as="geometry">
            <Array as="points">
              <mxPoint x="354" y="1120" />
              <mxPoint x="600" y="1120" />
            </Array>
          </mxGeometry>
        </mxCell>
      </root>
    </mxGraphModel>
  </diagram>
</mxfile>
